HIERARCHY
ROOT Hips
{
	OFFSET -0.001795 -0.223333 0.028219
	CHANNELS 6 Xposition Yposition Zposition Zrotation Yrotation Xrotation 
	JOINT LeftUpLeg
	{
		OFFSET 0.069520 -0.091406 -0.006815
		CHANNELS 3 Zrotation Yrotation Xrotation
		JOINT LeftLeg
		{
			OFFSET 0.034277 -0.375199 -0.004496
			CHANNELS 3 Zrotation Yrotation Xrotation
			JOINT LeftFoot
			{
				OFFSET -0.013596 -0.397961 -0.043693
				CHANNELS 3 Zrotation Yrotation Xrotation
				JOINT LeftToe
				{
					OFFSET 0.026358 -0.055791 0.119288
					CHANNELS 3 Zrotation Yrotation Xrotation
					End Site
					{
						OFFSET 0.000000 0.000000 0.000000
					}
				}
			}
		}
	}
	JOINT RightUpLeg
	{
		OFFSET -0.067670 -0.090522 -0.004320
		CHANNELS 3 Zrotation Yrotation Xrotation
		JOINT RightLeg
		{
			OFFSET -0.038290 -0.382569 -0.008850
			CHANNELS 3 Zrotation Yrotation Xrotation
			JOINT RightFoot
			{
				OFFSET 0.015774 -0.398415 -0.042312
				CHANNELS 3 Zrotation Yrotation Xrotation
				JOINT RightToe
				{
					OFFSET -0.025372 -0.048144 0.123348
					CHANNELS 3 Zrotation Yrotation Xrotation
					End Site
					{
						OFFSET 0.000000 0.000000 0.000000
					}
				}
			}
		}
	}
	JOINT Spine
	{
		OFFSET -0.002533 0.108963 -0.026696
		CHANNELS 3 Zrotation Yrotation Xrotation
		JOINT Spine1
		{
			OFFSET 0.005487 0.135180 0.001092
			CHANNELS 3 Zrotation Yrotation Xrotation
			JOINT Spine2
			{
				OFFSET 0.001457 0.052922 0.025425
				CHANNELS 3 Zrotation Yrotation Xrotation
				JOINT Neck
				{
					OFFSET -0.002778 0.213870 -0.042857
					CHANNELS 3 Zrotation Yrotation Xrotation
					JOINT Head
					{
						OFFSET 0.005152 0.064970 0.051349
						CHANNELS 3 Zrotation Yrotation Xrotation
						End Site
						{
							OFFSET 0.000000 0.000000 0.000000
						}
					}
				}
				JOINT LeftShoulder
				{
					OFFSET 0.078845 0.121749 -0.034090
					CHANNELS 3 Zrotation Yrotation Xrotation
					JOINT LeftArm
					{
						OFFSET 0.090977 0.030469 -0.008868
						CHANNELS 3 Zrotation Yrotation Xrotation
						JOINT LeftForeArm
						{
							OFFSET 0.259612 -0.012772 -0.027456
							CHANNELS 3 Zrotation Yrotation Xrotation
							JOINT LeftHand
							{
								OFFSET 0.249234 0.008986 -0.001171
								CHANNELS 3 Zrotation Yrotation Xrotation
								End Site
								{
									OFFSET 0.000000 0.000000 0.000000
								}
							}
						}
					}
				}
				JOINT RightShoulder
				{
					OFFSET -0.081759 0.118833 -0.038615
					CHANNELS 3 Zrotation Yrotation Xrotation
					JOINT RightArm
					{
						OFFSET -0.096012 0.032551 -0.009143
						CHANNELS 3 Zrotation Yrotation Xrotation
						JOINT RightForeArm
						{
							OFFSET -0.253742 -0.013329 -0.021401
							CHANNELS 3 Zrotation Yrotation Xrotation
							JOINT RightHand
							{
								OFFSET -0.255298 0.007772 -0.005559
								CHANNELS 3 Zrotation Yrotation Xrotation
								End Site
								{
									OFFSET 0.000000 0.000000 0.000000
								}
							}
						}
					}
				}
			}
		}
	}
}
MOTION
Frames: 11
Frame Time: 0.050000
0.133717 0.934824 0.423129 -2.547855 -80.223159 8.139677 1.000954 0.795132 1.401500 -5.866346 1.992726 -8.211982 21.837758 31.156622 22.424296 0.000000 0.000000 0.000000 -2.502226 1.165847 -9.390078 3.311228 0.982825 4.329727 -12.599374 -20.003990 14.396799 0.000000 0.000000 0.000000 4.533108 -0.298345 4.236819 9.366674 0.435618 5.178413 -6.705070 -9.198727 -0.992605 9.765714 -6.663625 -23.540456 0.000000 0.000000 0.000000 -26.893353 -39.151479 42.016658 -1.206336 -32.731346 -2.681292 48.555519 -19.222994 -8.840987 0.000000 0.000000 0.000000 22.593701 40.887370 0.781409 27.602958 17.690554 6.092513 -26.448367 41.640451 -15.211990 0.000000 0.000000 0.000000 
0.128882 0.935268 0.420386 0.340337 -81.306970 5.309248 0.463975 0.720209 1.347730 -5.634902 1.959666 -7.544247 22.693769 31.670206 23.678374 0.000000 0.000000 0.000000 -2.598891 1.137594 -8.863098 2.805274 0.930031 3.659189 -12.161170 -19.035483 13.765886 0.000000 0.000000 0.000000 4.592525 -0.270573 3.476538 9.649215 0.864301 6.442752 -6.757699 -9.030549 -1.779808 8.892906 -6.354034 -23.236491 0.000000 0.000000 0.000000 -26.705094 -39.723763 42.181098 -0.632771 -32.829371 -2.729814 47.529322 -18.245478 -8.235724 0.000000 0.000000 0.000000 21.918094 41.214121 1.325942 24.882116 18.922069 5.644985 -25.453339 37.957903 -12.945538 0.000000 0.000000 0.000000 
0.124456 0.935458 0.418318 2.378998 -82.115800 3.079052 0.140257 0.737516 1.817823 -5.437657 1.925738 -7.405206 23.228969 32.034922 24.549917 0.000000 0.000000 0.000000 -2.932828 1.174600 -8.597463 3.124762 0.991674 3.909878 -11.989059 -18.510469 13.310854 0.000000 0.000000 0.000000 4.939820 -0.260265 3.345926 9.670194 0.961554 6.468999 -6.784496 -8.453974 -1.925784 8.355536 -6.230596 -22.594975 0.000000 0.000000 0.000000 -26.471631 -39.917830 42.059010 -1.445308 -33.303968 -2.607017 46.888724 -18.445693 -8.180768 0.000000 0.000000 0.000000 22.023156 41.580448 1.540367 22.528130 18.499040 5.125872 -23.296229 36.548737 -11.147914 0.000000 0.000000 0.000000 
0.120952 0.935534 0.416624 5.618508 -82.649091 0.205855 -0.133109 0.708780 1.878546 -5.600386 1.997352 -7.744105 23.562053 31.996486 25.322638 0.000000 0.000000 0.000000 -3.121051 1.200653 -8.440334 2.843055 0.955818 3.236139 -11.841294 -18.028260 12.971529 0.000000 0.000000 0.000000 4.940959 -0.207839 2.367738 10.001882 1.201020 7.174717 -6.725811 -8.161170 -2.172440 7.609311 -5.977911 -22.142166 0.000000 0.000000 0.000000 -25.698289 -39.930177 41.410535 -1.882428 -34.074110 -2.524531 45.742167 -18.319050 -7.796569 0.000000 0.000000 0.000000 21.671035 41.066283 1.502697 20.881197 18.719306 4.710403 -21.414199 34.612187 -9.531412 0.000000 0.000000 0.000000 
0.118542 0.935829 0.415235 8.117684 -82.933362 -2.388433 -0.473149 0.658987 1.877637 -5.383876 1.942217 -7.244537 23.879790 32.131067 25.879601 0.000000 0.000000 0.000000 -3.466992 1.230077 -7.988930 3.083763 0.979605 2.836397 -11.792618 -17.813805 12.846936 0.000000 0.000000 0.000000 4.828106 -0.191669 2.116438 9.931257 1.093482 6.689184 -6.661493 -7.790600 -1.982227 6.935042 -5.811475 -21.388524 0.000000 0.000000 0.000000 -25.934494 -39.176576 41.190045 -2.413657 -35.075247 -2.561537 44.547833 -18.293070 -7.572317 0.000000 0.000000 0.000000 21.629572 40.852157 1.294683 20.418607 17.619670 4.509177 -19.205239 34.521803 -8.611588 0.000000 0.000000 0.000000 
0.117088 0.936226 0.414149 12.368231 -83.419899 -6.354403 -0.830640 0.606618 1.847195 -5.544942 2.012092 -7.504051 24.232640 32.060836 26.713918 0.000000 0.000000 0.000000 -3.915525 1.299288 -7.665342 3.114373 0.993236 1.762936 -11.563646 -17.404816 12.787547 0.000000 0.000000 0.000000 4.353286 -0.121118 1.068231 10.568838 1.361997 7.762394 -6.774046 -7.773526 -2.351404 6.116679 -5.491645 -20.165990 0.000000 0.000000 0.000000 -26.137023 -38.354108 40.757722 -3.194525 -35.994010 -2.542342 43.255505 -19.603856 -7.782779 0.000000 0.000000 0.000000 21.930035 40.164350 1.000914 19.646427 16.534382 4.251667 -16.526227 35.471081 -7.715208 0.000000 0.000000 0.000000 
0.115907 0.936496 0.413118 12.531930 -83.988184 -6.533964 -0.724179 0.645182 1.937996 -5.530442 2.024333 -7.473262 24.603520 32.277549 27.231514 0.000000 0.000000 0.000000 -3.845248 1.269805 -7.136953 3.253265 1.046229 0.814056 -11.169934 -16.936253 12.770305 0.000000 0.000000 0.000000 4.357513 -0.072690 0.493031 11.193764 1.422586 8.201140 -6.951326 -8.212184 -2.378756 5.352195 -5.206521 -19.373364 0.000000 0.000000 0.000000 -26.763645 -36.626292 40.311605 -4.165398 -36.850269 -2.573367 42.633562 -20.743447 -8.061388 0.000000 0.000000 0.000000 22.174977 40.028876 0.609896 20.107713 14.956961 4.260733 -14.552989 36.900403 -7.398590 0.000000 0.000000 0.000000 
0.114577 0.936789 0.411848 14.547043 -84.079224 -8.562869 -0.415744 0.724320 2.102317 -6.287591 2.285095 -7.546654 24.429935 31.896465 27.328647 0.000000 0.000000 0.000000 -3.774507 1.235374 -6.612699 2.899293 1.018357 0.037242 -11.039161 -16.721676 12.755643 0.000000 0.000000 0.000000 3.847285 -0.006952 -0.277189 12.261355 1.357570 8.691117 -7.458257 -8.141301 -2.078590 5.976888 -5.482409 -18.789417 0.000000 0.000000 0.000000 -27.291659 -35.422391 39.781260 -7.199395 -36.774550 -2.139110 43.910017 -24.344585 -9.574469 0.000000 0.000000 0.000000 22.722862 38.777010 -0.025169 20.728404 12.416761 4.076217 -12.174116 39.823790 -7.145826 0.000000 0.000000 0.000000 
0.112987 0.937031 0.410045 13.158992 -84.825077 -7.518363 0.038576 0.913776 2.760808 -6.435423 2.356053 -7.822554 24.697080 32.093767 27.743622 0.000000 0.000000 0.000000 -3.252996 1.110351 -5.570419 2.720771 1.067844 -1.184907 -10.435598 -16.031841 12.687366 0.000000 0.000000 0.000000 3.838357 0.011999 -0.445367 12.372932 1.270026 8.088200 -7.461979 -7.591578 -1.049738 5.888371 -5.586556 -18.927816 0.000000 0.000000 0.000000 -28.634512 -32.830682 39.272360 -10.907264 -37.020615 -1.814628 45.671457 -28.898650 -11.696918 0.000000 0.000000 0.000000 22.911068 37.037946 -1.451723 23.143537 9.750753 4.116209 -10.050780 43.754451 -7.553401 0.000000 0.000000 0.000000 
0.111384 0.937619 0.407504 14.917206 -85.282856 -9.277926 0.498524 1.002348 2.701799 -7.096510 2.611068 -7.486018 24.837249 31.871665 28.209498 0.000000 0.000000 0.000000 -3.182386 1.097952 -4.686110 2.758538 1.211945 -2.734046 -10.027570 -15.693201 12.927748 0.000000 0.000000 0.000000 3.122191 0.058191 -0.985513 13.083004 1.187787 7.969069 -7.797024 -7.405627 -0.450771 6.773947 -5.990171 -17.918411 0.000000 0.000000 0.000000 -30.539466 -29.489223 38.589732 -14.831860 -36.133833 -1.685962 47.857466 -36.329251 -15.233554 0.000000 0.000000 0.000000 24.353874 34.904921 -3.272146 24.564696 5.988654 3.754744 -4.671087 48.511125 -6.121005 0.000000 0.000000 0.000000 
0.110191 0.937989 0.404328 16.627133 -86.574437 -11.326273 0.966779 1.170008 2.989845 -7.383261 2.775436 -7.091269 25.542645 32.321936 29.103940 0.000000 0.000000 0.000000 -2.680074 1.023504 -3.749538 2.534536 1.342288 -3.934461 -9.134672 -14.702504 12.810633 0.000000 0.000000 0.000000 2.907456 0.057369 -1.003974 13.087032 1.403782 8.074867 -7.643899 -6.864421 0.075945 6.805332 -6.065210 -17.623993 0.000000 0.000000 0.000000 -32.554859 -26.434232 38.169925 -18.744929 -34.232625 -1.777287 49.074762 -43.180051 -18.586051 0.000000 0.000000 0.000000 25.291626 32.995095 -4.992939 26.621557 2.419554 3.324299 1.269134 51.639974 -3.945509 0.000000 0.000000 0.000000 
